<?xml version="1.0" encoding="utf-8"?>
<!-- Generator: Adobe Illustrator 27.0.1, SVG Export Plug-In . SVG Version: 6.00 Build 0)  -->
<svg version="1.1" id="Layer_1" xmlns="http://www.w3.org/2000/svg" xmlns:xlink="http://www.w3.org/1999/xlink" x="0px" y="0px"
	 viewBox="0 0 263.3 199" style="enable-background:new 0 0 263.3 199;" xml:space="preserve">
<style type="text/css">
	.st0{fill:none;}
	.st1{fill:#FFFFFF;}
	.st2{fill:#EE00FD;}
	.st3{fill:#E0FF00;}
	.st4{fill:#01F2FF;}
</style>
<g>
	
		<rect x="128.6" y="110.5" transform="matrix(0.7071 -0.7071 0.7071 0.7071 -42.2224 126.8569)" class="st0" width="6.9" height="7.9"/>
	<path class="st1" d="M30.3,17.6c-6.7-6.7-17.5-6.7-24.2,0v0c-6.7,6.7-6.7,17.5,0,24.2l67.7,67.7L98,85.3L30.3,17.6z"/>
	<path class="st1" d="M190.1,119.2l-24.2,24.2l37.4,37.4c6.7,6.7,17.5,6.7,24.2,0v0c6.7-6.7,6.7-17.5,0-24.2L190.1,119.2z"/>
	<path class="st1" d="M257.2,43.2c6.7-6.7,6.7-17.5,0-24.2v0c-6.7-6.7-17.5-6.7-24.2,0l-66.9,66.9l24.2,24.2L257.2,43.2z"/>
	<path class="st2" d="M158.4,93.6l-18.1,18.1c-1.7,1.7-1.7,4.4,0,6.1l18.1,18.1c1.7,1.7,4.4,1.7,6.1,0l18.1-18.1
		c1.7-1.7,1.7-4.4,0-6.1l-18.1-18.1C162.8,91.9,160.1,91.9,158.4,93.6z"/>
	<path class="st3" d="M128.9,65.9l-18.1,18.1c-1.7,1.7-1.7,4.4,0,6.1l18.1,18.1c1.7,1.7,4.4,1.7,6.1,0l18.1-18.1
		c1.7-1.7,1.7-4.4,0-6.1L135,65.9C133.3,64.2,130.6,64.2,128.9,65.9z"/>
	<path class="st3" d="M128.9,121.8l-18.1,18.1c-1.7,1.7-1.7,4.4,0,6.1l18.1,18.1c1.7,1.7,4.4,1.7,6.1,0l18.1-18.1
		c1.7-1.7,1.7-4.4,0-6.1L135,121.8C133.3,120.1,130.6,120.1,128.9,121.8z"/>
	<path class="st1" d="M36.7,155.8c-6.7,6.7-6.7,17.5,0,24.2v0c6.7,6.7,17.5,6.7,24.2,0l36.4-36.4L73,119.4L36.7,155.8z"/>
	<path class="st4" d="M99.5,92.9L81.4,111c-1.7,1.7-1.7,4.4,0,6.1l18.1,18.1c1.7,1.7,4.4,1.7,6.1,0l18.1-18.1c1.7-1.7,1.7-4.4,0-6.1
		l-18.1-18.1C104,91.2,101.2,91.2,99.5,92.9z"/>
</g>
</svg>
